<?xml version="1.0" encoding="UTF-8"?>
<svg xmlns="http://www.w3.org/2000/svg" width="106" height="66" viewBox="0 0 106 66" fill="none">
  <g id="White Logo 2" clip-path="url(#clip0_792_714)">
    <path id="Vector" d="M41.0352 65.0798V53.4665H42.9564L46.9643 61.2211V53.4665H48.8047V65.0798H46.8169L42.8753 57.5062V65.0798H41.0352Z" fill="#FEFEFE"></path>
    <path id="Vector_2" d="M40.3785 65.0798H38.2359L37.3781 62.4441H33.4591L32.6527 65.0798H30.5488L34.3606 53.4665H36.4544L40.3785 65.0798ZM36.7413 60.4892L35.3906 56.179L34.0633 60.4892H36.7413Z" fill="#FEFEFE"></path>
    <path id="Vector_3" d="M28.3428 60.3364L30.2566 61.0583C29.9579 62.3565 29.4611 63.3056 28.766 63.9058C28.0709 64.506 27.216 64.8058 26.2014 64.805C24.9255 64.805 23.8909 64.3266 23.0976 63.3702C22.1821 62.2649 21.7263 60.7774 21.7305 58.907C21.7305 56.927 22.1883 55.3772 23.1039 54.2576C23.9029 53.286 24.9762 52.8 26.3238 52.8C27.4208 52.8 28.3393 53.1642 29.0792 53.8929C29.6063 54.4107 29.9918 55.1792 30.2367 56.1983L28.2829 56.743C28.1578 56.1156 27.9082 55.6339 27.5337 55.298C27.1722 54.9667 26.7019 54.787 26.2164 54.7945C25.8704 54.7905 25.5286 54.8729 25.2209 55.0348C24.9132 55.1965 24.6489 55.4327 24.451 55.7228C23.9941 56.3349 23.7656 57.3462 23.7656 58.7564C23.7656 60.2197 23.9882 61.2598 24.4336 61.877C24.8789 62.4942 25.4573 62.8032 26.169 62.804C26.4219 62.8061 26.6725 62.7549 26.9049 62.6534C27.1375 62.5516 27.3469 62.402 27.5199 62.2137C27.901 61.8183 28.1753 61.1925 28.3428 60.3364Z" fill="#FEFEFE"></path>
    <path id="Vector_4" d="M48.6235 9.62813C46.0342 11.2449 43.2923 12.2083 40.1819 11.9812C37.1755 11.7617 34.1691 11.6864 31.1629 11.5652C30.9793 11.5608 30.7986 11.5188 30.6313 11.4416C30.4641 11.3644 30.3139 11.2537 30.1896 11.116C29.027 9.94588 27.8094 8.837 26.6821 7.62348C25.4144 6.24664 24.6929 5.6954 23.6444 3.01574C23.2122 1.6976 23.5667 -0.125856 23.5191 0.00685153C22.5834 1.93239 21.3896 4.48062 21.3182 6.72772C19.9691 6.01314 19.7174 5.63799 19.6898 4.35174C19.6773 3.71373 19.6898 3.06679 19.6898 2.42366C19.6898 2.16845 19.7574 1.33903 19.7574 1.33903C19.7574 1.33903 18.9908 1.90304 18.8067 2.07402C18.123 2.71742 17.5896 3.50886 17.2459 4.39002C16.2037 6.99568 16.8187 9.43035 18.0588 11.7693C18.7453 13.0632 19.5182 14.3125 20.2673 15.5732C20.5053 15.9726 20.6581 16.2737 20.0856 16.5455C18.233 17.4247 16.3878 18.332 14.331 18.5872C11.4499 18.961 9.59218 17.5791 9.04225 14.6825C8.95207 14.2014 8.90448 13.7102 8.86062 13.2214C8.73535 11.8267 8.65768 10.4308 9.33537 9.01054C8.64017 9.13814 8.42846 9.52094 8.16415 9.82209C6.87005 11.2738 5.8097 12.925 5.02249 14.7144C4.60162 15.6791 4.46631 16.215 4.30098 17.7922C3.65085 18.4302 2.87294 19.4612 2.17147 20.5484C1.38981 21.7773 0.877476 23.1796 0.556797 24.619C0.236118 26.0583 -0.069529 27.5155 0.853674 28.8835C1.17686 29.366 0.916307 29.8072 0.687074 30.2528C0.0983264 31.4012 -0.33885 32.6643 0.356372 33.8192C1.94223 36.4541 3.96901 38.7574 7.15076 39.2002C10.7929 39.7191 14.3452 40.7578 17.7031 42.2858C18.9244 42.8332 20.1658 43.3372 21.4084 43.8348C25.0587 45.297 28.7777 45.8649 32.6085 44.6157C33.0267 44.4792 33.2283 44.6936 33.4764 44.9231C34.3207 45.6979 35.2614 46.1203 36.4314 45.8164C37.1079 45.6443 37.6642 45.8738 38.1012 46.4416C38.3784 46.7978 38.6783 47.1345 38.9995 47.4497C40.0354 48.4707 40.5765 48.4847 41.6487 47.5187C42.6735 46.596 43.1044 46.6663 43.8283 47.8659C44.3295 48.7029 44.8067 49.5628 45.3566 50.368C46.3162 51.7717 48.3392 51.8267 48.963 50.4561C49.374 49.5552 49.5468 48.6199 49.0019 47.6399C48.2364 46.2617 47.55 44.8326 47.272 43.2505C47.0802 42.1605 46.5541 41.1934 46.1996 40.1649C45.2252 37.3436 44.4121 34.4916 47.1342 32.0903C47.2373 31.9814 47.3335 31.8659 47.4223 31.7444C47.7405 31.3742 47.7178 31.0529 47.4098 30.6482C46.2974 29.1833 44.5473 29.1809 43.3813 30.7988C41.9156 32.8316 41.1977 35.0748 42.0282 37.6116C42.3804 38.686 42.7498 39.7616 42.8375 40.9025C42.9128 41.8887 42.5707 42.6468 41.5173 42.7871C40.9499 42.8636 40.6968 43.1699 40.4512 43.6319C40.3261 43.8614 40.3648 44.4563 39.8626 44.2138C39.4967 44.0363 39.6045 43.6497 39.7648 43.3205C39.8261 43.1928 39.8011 43.0258 39.8162 42.8766C40.148 41.3171 40.0391 39.7541 39.9 38.1844V38.1017C39.901 38.068 39.8955 38.0346 39.8838 38.0033C39.8398 37.5236 39.7961 37.0424 39.7585 36.5613C39.706 36.9934 39.6538 37.4268 39.6019 37.8616C39.3239 39.1084 39.1498 40.3845 38.6423 41.5698C38.2954 42.3801 37.8383 43.101 37.0139 43.5069C36.7823 43.619 36.504 43.762 36.27 43.605C35.9843 43.4213 36.1759 43.1266 36.221 42.8803C36.4804 41.4766 36.786 40.073 36.9977 38.6542C37.5213 35.1513 38.2191 31.6358 36.7396 28.178C36.6696 27.9616 36.6347 27.7354 36.6357 27.508C36.5856 26.8061 36.6646 26.2727 37.5802 26.1987C38.5411 26.1196 38.8766 25.4254 38.7464 24.4927C38.6725 23.9682 38.5548 23.4501 38.4958 22.9257C38.3707 21.7964 38.0813 20.537 38.5898 19.5736C39.2012 18.4174 38.8403 17.6825 38.1552 16.9309C37.9721 16.7305 37.6114 16.5481 37.5728 16.1997C37.4959 15.3904 37.4858 14.576 37.5425 13.765C37.7143 13.7447 37.8881 13.7603 38.0537 13.811C40.068 14.3469 41.0061 16.224 40.7305 17.7424C40.5953 18.4825 40.3937 19.2111 40.2021 19.9398C39.7784 21.4752 39.6851 23.0856 39.9289 24.6611C39.9689 24.9036 39.9013 25.2506 40.2119 25.3323C40.5715 25.4267 40.7231 25.1 40.8747 24.8449C41.1852 24.3166 41.3055 23.7232 41.4158 23.1273C41.8907 20.5535 41.7916 17.9313 42.042 15.3435C42.0979 14.7185 41.9969 14.0894 41.7489 13.5149C41.7489 13.5149 42.8765 13.2597 43.5376 13.1168C44.1991 12.9739 44.8756 12.7646 44.8756 12.7646C44.8756 12.7646 44.7503 13.3465 44.7066 13.64C44.5886 14.4975 44.4948 15.3614 44.3194 16.2074C43.8959 18.235 43.3386 20.2371 43.1921 22.3157C43.1757 22.5556 43.018 22.8797 43.3047 23.0303C43.5615 23.1656 43.8058 22.9423 44.0101 22.7968C44.7529 22.2749 45.0998 21.4774 45.3879 20.6518C45.9428 19.0402 46.1394 17.3456 46.4728 15.6842C46.7232 14.4618 46.9474 13.2202 47.7254 12.2045C48.0572 11.768 48.4931 11.056 49.1334 11.2028C49.7058 11.3304 49.8462 12.082 49.9901 12.5873C50.2758 13.5889 50.5087 14.606 50.7631 15.6166L50.9409 15.6013C51.1776 13.0594 51.4145 10.5175 51.675 7.72558L48.6235 9.62813ZM35.7551 37.6383C34.9145 41.7217 32.4667 43.3625 28.3958 42.9531C25.4645 42.6584 22.7475 41.6681 20.1157 40.4381C17.0555 39.0087 13.8875 38.2547 10.5204 38.3288C9.43991 38.356 8.36107 38.2272 7.31609 37.946C6.81153 37.8231 6.32534 37.6321 5.87055 37.3781C5.05257 36.8905 3.8876 35.8138 4.04544 35.0813C4.14691 34.6128 5.74528 35.164 6.5119 35.2637C7.72573 35.4218 8.88442 35.8544 10.0293 36.3049C11.0678 36.7146 12.1112 37.1152 13.2236 37.2798C15.2404 37.5785 15.6274 37.3409 16.3928 35.1807C13.5355 35.9207 11.2381 36.046 8.83057 33.6597C8.24182 33.0765 6.25387 33.1902 5.00871 33.4402C4.18374 33.6005 3.37085 33.8195 2.57607 34.0961C1.75308 34.3806 1.22321 34.1293 0.993973 33.4224C0.781022 32.7651 0.95514 31.7546 1.27958 31.2021C2.00486 29.9592 2.33055 28.4293 4.25964 28.5416C4.4776 28.5543 4.8296 28.5352 4.84587 28.331C4.86718 28.0643 4.6442 28.0605 4.47007 28.054C4.17317 28.0244 3.87422 28.0223 3.57694 28.0476C1.60401 28.3426 1.04032 27.0778 1.3635 25.368C1.7946 23.0031 2.77376 20.7773 4.21954 18.8756C4.44201 18.5841 4.68303 18.3079 4.94108 18.0487C4.85716 16.007 5.95572 13.7102 7.27102 11.985C7.58292 13.1181 7.84723 14.2665 8.11531 15.1865C8.4535 16.349 8.88693 17.4719 9.61847 18.4455C10.4026 19.4868 11.3973 20.0546 12.7426 20.1159C14.946 20.2167 17.0154 19.7088 19.0572 18.9674C20.8473 18.3192 22.6736 17.805 24.5826 17.7616C25.2428 17.7463 25.2228 17.4502 25.1438 16.9896C25.0673 16.5013 24.8947 16.0339 24.6364 15.6153C24.3781 15.1967 24.0394 14.8356 23.6406 14.5536C22.8252 13.9616 21.9634 13.4358 21.1354 12.8565C20.3337 12.2925 19.6121 11.643 19.2401 10.6873C18.6488 9.16621 19.1837 8.34957 20.7859 8.35083C22.3442 8.35083 23.5492 9.11646 24.5839 10.219C25.7201 11.435 26.5117 12.8986 27.3936 14.292C28.0775 15.3741 28.779 16.446 29.8287 17.2103C30.0293 17.3571 30.2259 17.6391 30.5002 17.5255C30.8108 17.3979 30.7045 17.0572 30.6592 16.8199C30.0955 13.7918 33.2196 12.9344 35.4395 13.9399C35.8704 14.1364 36.0919 14.4503 36.0358 14.9148C35.9793 15.3792 35.9205 15.8258 35.7451 16.2303C34.3509 19.4421 34.5049 22.6845 35.4332 25.9779C36.5167 29.8328 36.5554 33.7489 35.7551 37.6383ZM37.7919 18.9649C37.6303 20.2409 37.6403 21.2311 37.2995 22.155C37.2118 22.391 37.1217 22.7177 36.8135 22.6934C36.5268 22.6718 36.4203 22.3566 36.3625 22.1116C36.1282 21.0508 36.0344 19.963 36.0832 18.8768C36.0996 18.3434 36.5279 17.9772 36.9375 18.0321C37.5351 18.1125 37.8457 18.6152 37.7919 18.9649Z" fill="#FEFEFE"></path>
    <path id="Vector_5" d="M24.8487 21.1328C24.2575 20.804 23.5723 20.6952 22.9109 20.8253C22.1485 20.9685 21.3955 21.1594 20.6561 21.397C19.6264 21.7428 19.5037 22.2736 20.2666 23.0928C21.1434 24.0294 22.2846 24.2732 23.5021 24.2578C23.7605 24.273 24.0195 24.2708 24.2775 24.2515C24.9339 24.166 25.7532 24.1481 25.8646 23.3263C25.9862 22.4599 25.7181 21.5999 24.8487 21.1328Z" fill="#FEFEFE"></path>
    <path id="Vector_6" d="M104.134 66H53.5312V0L106.001 33.6061H72.4901L104.134 66ZM57.0216 62.4303H95.7137L64.074 30.0367H93.8484L57.0176 6.44435L57.0216 62.4303Z" fill="#1F3F8D"></path>
    <path id="Vector_7" fill-rule="evenodd" clip-rule="evenodd" d="M55.2754 3.22156V64.2153H99.9207L68.2824 31.8215H99.9207L55.2754 3.22156Z" fill="#DE1D3E"></path>
    <path id="Vector_8" fill-rule="evenodd" clip-rule="evenodd" d="M68.005 42.0048L71.2772 39.4742L70.779 43.6621L74.8695 43.1152L72.3804 46.5025L76.168 48.142L72.3804 49.7979L74.8695 53.1483L70.779 52.6384L71.2772 56.8263L68.005 54.2778L66.3686 58.1737L64.786 54.2778L61.4963 56.8263L61.9945 52.6384L57.904 53.1483L60.3931 49.7979L56.6055 48.142L60.3931 46.5025L57.904 43.1152L61.9945 43.6621L61.4963 39.4742L64.786 42.0048L66.3686 38.1267L68.005 42.0048Z" fill="#FEFEFE"></path>
    <path id="Vector_9" fill-rule="evenodd" clip-rule="evenodd" d="M75.5287 21.0043C75.516 23.4793 74.5474 25.8486 72.8347 27.5953C71.122 29.3417 68.8041 30.3239 66.3867 30.3274C61.3724 30.3274 57.297 26.1572 57.2461 21.0043C58.0509 23.0703 59.4938 24.8098 61.3549 25.9571H61.3737L62.1918 25.3388L60.6439 24.1545L62.4944 23.6815L61.533 21.9885L63.4145 22.2613L63.1482 20.3134L64.8018 21.3332L65.2647 19.421L66.4029 20.9865L67.5758 19.421L68.039 21.3332L69.6926 20.3134L69.4263 22.2613L71.3115 21.9885L70.3514 23.6815L72.2003 24.1545L70.6713 25.3388L71.4358 25.9393V25.9571C73.2921 24.809 74.7289 23.0691 75.5263 21.0043H75.5287Z" fill="#FEFEFE"></path>
  </g>
  <defs>
    <clipPath id="clip0_792_714">
      <rect width="106" height="66" fill="white"></rect>
    </clipPath>
  </defs>
</svg>
